<?xml version="1.0" encoding="UTF-8"?>
<svg id="Layer_1" data-name="Layer 1" xmlns="http://www.w3.org/2000/svg" viewBox="0 0 472.8 210">
  <defs>
    <style>
      .cls-1 {
        fill: #fff;
      }
    </style>
  </defs>
  <g>
    <polygon class="cls-1" points=".29 105.14 52.35 52.48 52.35 157.21 0 209.56 .29 105.14"/>
    <path class="cls-1" d="M0,.36v52.1h104.49c-17.38,17.59-34.76,35.17-52.14,52.76h67.42c17.43-17.48,34.85-34.95,52.28-52.43L119.68.41,0,.36Z"/>
    <polygon class="cls-1" points="172.35 105.22 119.77 105.22 119.77 157.21 52.35 157.21 52.35 210 120.21 210 172.47 157.74 172.35 105.22"/>
  </g>
  <path class="cls-1" d="M232.43,26.53c4.33,2.77,6.5,6.75,6.5,11.94,0,4.59-1.64,8.31-4.91,11.19-3.28,2.87-7.33,4.31-12.17,4.31h-22.22V1.06h20.71c4.74,0,8.7,1.4,11.9,4.2,3.2,2.8,4.8,6.44,4.8,10.92,0,4.23-1.54,7.69-4.61,10.36ZM220.34,12.4h-8.62v9.37h8.62c1.36,0,2.47-.44,3.33-1.32.86-.88,1.28-2,1.28-3.36s-.43-2.48-1.28-3.36c-.86-.88-1.97-1.32-3.33-1.32ZM221.85,42.63c1.51,0,2.72-.47,3.63-1.4.91-.93,1.36-2.15,1.36-3.67s-.45-2.73-1.36-3.67c-.91-.93-2.12-1.4-3.63-1.4h-10.13v10.13h10.13Z"/>
  <path class="cls-1" d="M258.58,42.33h18.9v11.64h-30.99V1.06h12.09v41.27Z"/>
  <path class="cls-1" d="M319.43,53.97l-2.65-8.31h-19.65l-2.65,8.31h-13.23L299.25,1.06h15.42l17.99,52.91h-13.23ZM300.76,34.32h12.4l-6.2-19.43-6.2,19.43Z"/>
  <path class="cls-1" d="M362.06,55.03c-7.91,0-14.48-2.63-19.69-7.9-5.22-5.27-7.82-11.8-7.82-19.62s2.61-14.35,7.82-19.61c5.22-5.27,11.78-7.9,19.69-7.9,4.74,0,9.12,1.1,13.15,3.29,4.03,2.19,7.21,5.18,9.52,8.96l-10.43,6.05c-1.16-2.07-2.82-3.67-4.99-4.8-2.17-1.13-4.59-1.7-7.26-1.7-4.69,0-8.43,1.44-11.22,4.31-2.8,2.87-4.2,6.68-4.2,11.41s1.4,8.54,4.2,11.41c2.8,2.87,6.54,4.31,11.22,4.31,2.67,0,5.1-.58,7.29-1.74,2.19-1.16,3.84-2.75,4.95-4.76l10.43,6.05c-2.27,3.78-5.42,6.77-9.45,8.96-4.03,2.19-8.44,3.29-13.23,3.29Z"/>
  <path class="cls-1" d="M434.7,53.97h-13.76l-16.93-24.49v24.49h-12.09V1.06h12.09v22.98l16.18-22.98h13.76l-17.84,25.78,18.59,27.14Z"/>
  <path class="cls-1" d="M218.14,132.92c-5.39,0-9.89-1.17-13.49-3.52-3.6-2.34-6.16-5.53-7.67-9.56l10.43-6.05c2.12,4.89,5.82,7.33,11.11,7.33,4.79,0,7.18-1.44,7.18-4.31,0-1.56-.77-2.78-2.31-3.67-1.54-.88-4.42-1.9-8.65-3.06-2.22-.6-4.16-1.29-5.82-2.04-1.66-.76-3.29-1.75-4.88-2.99-1.59-1.23-2.8-2.78-3.63-4.65-.83-1.86-1.25-4.01-1.25-6.42,0-4.89,1.75-8.79,5.25-11.72,3.5-2.92,7.67-4.38,12.51-4.38,4.33,0,8.16,1.02,11.49,3.06,3.33,2.04,5.95,5,7.86,8.88l-10.2,5.97c-.96-2.01-2.14-3.54-3.55-4.57-1.41-1.03-3.28-1.55-5.59-1.55-1.81,0-3.21.39-4.2,1.17-.98.78-1.47,1.73-1.47,2.83,0,1.31.62,2.44,1.85,3.4,1.23.96,3.79,2.02,7.67,3.17,2.12.66,3.75,1.18,4.91,1.59,1.16.4,2.63,1.07,4.42,2,1.79.93,3.15,1.92,4.08,2.95.93,1.03,1.76,2.39,2.49,4.08.73,1.69,1.1,3.62,1.1,5.78,0,5.04-1.81,9.01-5.44,11.91-3.63,2.9-8.37,4.35-14.21,4.35Z"/>
  <path class="cls-1" d="M270.22,132.92c-7.91,0-14.47-2.63-19.69-7.9-5.22-5.27-7.82-11.8-7.82-19.62s2.61-14.35,7.82-19.61c5.22-5.27,11.78-7.9,19.69-7.9,4.74,0,9.12,1.1,13.15,3.29,4.03,2.19,7.21,5.18,9.52,8.96l-10.43,6.05c-1.16-2.07-2.82-3.67-4.99-4.8-2.17-1.13-4.59-1.7-7.26-1.7-4.69,0-8.43,1.44-11.22,4.31-2.8,2.87-4.2,6.68-4.2,11.41s1.4,8.54,4.2,11.41c2.8,2.87,6.54,4.31,11.22,4.31,2.67,0,5.1-.58,7.29-1.74,2.19-1.16,3.84-2.75,4.95-4.76l10.43,6.05c-2.27,3.78-5.42,6.77-9.45,8.96-4.03,2.19-8.44,3.29-13.23,3.29Z"/>
  <path class="cls-1" d="M327.9,131.86l-9.98-17.39h-5.74v17.39h-12.09v-52.91h21.16c5.04,0,9.32,1.76,12.85,5.29,3.53,3.53,5.29,7.81,5.29,12.85,0,3.23-.9,6.21-2.68,8.96-1.79,2.75-4.15,4.88-7.07,6.39l11.26,19.43h-13ZM312.18,90.29v13.61h9.07c1.66,0,3.09-.65,4.27-1.97,1.18-1.31,1.78-2.92,1.78-4.84s-.59-3.53-1.78-4.84c-1.18-1.31-2.61-1.97-4.27-1.97h-9.07Z"/>
  <path class="cls-1" d="M360.17,120.22h21.16v11.64h-33.26v-52.91h32.88v11.64h-20.79v8.77h18.9v11.49h-18.9v9.37Z"/>
  <path class="cls-1" d="M401.75,120.22h21.16v11.64h-33.26v-52.91h32.88v11.64h-20.79v8.77h18.9v11.49h-18.9v9.37Z"/>
  <path class="cls-1" d="M460.7,78.95h12.09v52.91h-9.07l-20.41-28.72v28.72h-12.09v-52.91h9.07l20.41,28.72v-28.72Z"/>
  <path class="cls-1" d="M252.54,156.85v52.91h-12.09v-30.76l-13.68,22.45h-1.36l-13.68-22.45v30.76h-12.09v-52.91h12.09l14.36,23.51,14.36-23.51h12.09Z"/>
  <path class="cls-1" d="M275.21,198.12h21.16v11.64h-33.26v-52.91h32.88v11.64h-20.79v8.77h18.9v11.49h-18.9v9.37Z"/>
  <path class="cls-1" d="M325.86,156.85c7.31,0,13.42,2.53,18.33,7.6,4.91,5.06,7.37,11.35,7.37,18.86s-2.46,13.79-7.37,18.86c-4.91,5.06-11.02,7.6-18.33,7.6h-21.16v-52.91h21.16ZM325.86,198.12c4.18,0,7.57-1.35,10.17-4.04,2.59-2.7,3.89-6.29,3.89-10.77s-1.3-8.07-3.89-10.77c-2.6-2.7-5.98-4.04-10.17-4.04h-9.07v29.63h9.07Z"/>
  <path class="cls-1" d="M359.87,156.85h12.09v52.91h-12.09v-52.91Z"/>
  <path class="cls-1" d="M416.18,209.76l-2.65-8.31h-19.65l-2.65,8.31h-13.23l17.99-52.91h15.42l17.99,52.91h-13.23ZM397.51,190.1h12.4l-6.2-19.43-6.2,19.43Z"/>
</svg>